# xmcd CD database file
#
# Track frame offsets:
#	182
#	24825
#	41502
#	61336
#	80268
#	103166
#	128796
#	153106
#	170776
#	196555
#	216530
#
# Disc length: 3205 seconds
#
# Revision: 0
# Processed by: cddbd v1.5.1PL0 Copyright (c) Steve Scherf et al.
# Submitted via: CDex 1.51
#
DISCID=8a0c830b
DTITLE=David Young - Oceans of Love
DYEAR=1995
DGENRE=New Age
TTITLE0=Oceans of Love
TTITLE1=Step by Step
TTITLE2=Light My Fire
TTITLE3=Something Beautiful
TTITLE4=Best Friends
TTITLE5=Guardians of the Sky
TTITLE6=Feels Like Rain
TTITLE7=Spirit Dance
TTITLE8=Once Upon A Time
TTITLE9=Love Letter
TTITLE10=Winds of Peace
EXTD=YEAR: 1995
EXTT0=
EXTT1=
EXTT2=
EXTT3=
EXTT4=
EXTT5=
EXTT6=
EXTT7=
EXTT8=
EXTT9=
EXTT10=
PLAYORDER=
